<svg xmlns="http://www.w3.org/2000/svg" width="1em" height="1em" viewBox="0 0 24 24"><g fill="none" stroke="currentColor" stroke-linecap="round" stroke-linejoin="round" stroke-width="2.5"><path fill="currentColor" d="M10 8a2 2 0 1 0 4 0 2 2 0 1 0 -4 0" opacity=".2" stroke="none"/><path fill="currentColor" d="M3 16a2 2 0 1 0 4 0 2 2 0 1 0 -4 0" opacity=".2" stroke="none"/><path fill="currentColor" d="M17 16a2 2 0 1 0 4 0 2 2 0 1 0 -4 0" opacity=".2" stroke="none"/><path stroke-width="5.5" d="M10.5 9.5 6 14" opacity=".2"/><path stroke-width="5.5" d="M13.5 9.5 18 14" opacity=".2"/><path d="M10 8a2 2 0 1 0 4 0 2 2 0 1 0 -4 0"/><path d="M10.5 9.5 6 14"/><path d="M13.5 9.5 18 14"/><path d="M3 16a2 2 0 1 0 4 0 2 2 0 1 0 -4 0"/><path d="M17 16a2 2 0 1 0 4 0 2 2 0 1 0 -4 0"/></g></svg>